<?xml version="1.0" standalone="no"?>
<!DOCTYPE svg PUBLIC "-//W3C//DTD SVG 20010904//EN"
 "http://www.w3.org/TR/2001/REC-SVG-20010904/DTD/svg10.dtd">
<svg version="1.0" xmlns="http://www.w3.org/2000/svg"
 width="1165.000000pt" height="541.000000pt" viewBox="0 0 1165.000000 541.000000"
 preserveAspectRatio="xMidYMid meet">

<g transform="translate(0.000000,541.000000) scale(0.100000,-0.100000)"
fill="#000000" stroke="none">
<path d="M2675 4735 c-293 -36 -566 -124 -807 -261 -53 -30 -99 -58 -102 -63
-3 -4 7 -26 23 -49 l27 -41 60 36 c226 137 521 238 804 273 108 13 368 13 485
0 331 -38 659 -161 955 -358 75 -49 142 -97 149 -106 20 -24 37 -20 70 21 l31
38 -22 18 c-13 10 -86 60 -163 112 -297 199 -594 316 -940 370 -140 22 -433
27 -570 10z"/>
<path d="M7008 4494 c-3 -37 -5 -39 -38 -41 -19 -2 -76 -5 -126 -9 -105 -7
-117 -12 -109 -46 l6 -24 232 0 c278 1 435 -23 627 -94 30 -11 57 -16 61 -12
10 10 49 110 49 125 0 17 -171 73 -317 103 -68 14 -174 27 -250 31 l-132 6 -3
-39z"/>
<path d="M8470 4173 c-24 -9 -59 -44 -74 -75 -14 -27 -13 -29 36 -80 263 -273
433 -612 499 -998 8 -43 13 -156 14 -262 l0 -187 25 -5 c14 -3 50 -6 80 -8
l55 -2 3 154 c9 446 -128 873 -394 1226 -59 79 -211 245 -223 243 -3 0 -13 -3
-21 -6z"/>
<path d="M2722 4110 c-272 -35 -552 -157 -766 -335 l-68 -57 48 -49 47 -48 51
46 c116 105 290 201 461 256 164 52 237 62 435 61 244 0 409 -36 618 -134 46
-22 86 -40 88 -40 4 0 64 113 61 116 -12 10 -161 80 -212 98 -38 14 -160 46
-255 67 -109 24 -387 34 -508 19z"/>
<path d="M1489 4003 c-298 -326 -458 -681 -499 -1107 -15 -164 -17 -156 30
-156 l40 0 0 49 c0 85 29 275 59 393 70 268 189 490 386 718 l97 112 -23 24
c-12 13 -26 24 -30 24 -4 0 -31 -26 -60 -57z"/>
<path d="M4734 2658 c-15 -29 -34 -58 -44 -65 -9 -6 -32 -42 -50 -80 -112
-225 -397 -564 -635 -756 -117 -94 -248 -181 -288 -191 -40 -9 -42 -27 -10
-80 29 -48 51 -57 73 -31 7 9 63 49 124 90 333 223 633 554 872 965 l50 85
-28 58 c-15 31 -30 57 -33 57 -2 0 -17 -24 -31 -52z"/>
<path d="M4866 2391 c-44 -82 -189 -294 -278 -408 -105 -134 -305 -337 -428
-435 -114 -90 -242 -178 -285 -193 -16 -6 -77 -34 -135 -62 -155 -76 -422
-163 -498 -163 -11 0 -37 -8 -58 -17 -33 -14 -74 -17 -259 -17 -200 0 -232 3
-346 27 -165 35 -290 76 -424 141 -119 57 -282 165 -382 253 l-62 54 -36 -38
c-19 -20 -34 -42 -32 -48 6 -18 140 -125 242 -194 561 -376 1310 -411 1940
-91 214 108 388 235 584 425 185 180 357 393 501 624 l52 84 -22 41 c-39 72
-43 72 -74 17z"/>
<path d="M7685 2088 c-5 -15 -62 -195 -110 -350 -18 -58 -36 -111 -40 -117 -4
-7 14 -11 54 -11 l60 0 10 38 c6 20 11 43 11 49 0 17 36 25 100 21 l53 -3 15
-52 15 -53 58 0 c33 0 59 2 59 4 0 2 -20 66 -45 142 -25 77 -59 185 -77 242
l-32 102 -63 0 c-42 0 -65 -4 -68 -12z m87 -176 c10 -37 20 -77 24 -89 6 -22
3 -23 -45 -23 -28 0 -51 3 -51 8 1 9 18 86 31 135 5 20 13 37 17 37 4 0 15
-30 24 -68z"/>
<path d="M8060 1855 l0 -245 55 0 55 0 0 80 0 80 35 0 c35 0 37 -2 73 -80 l37
-79 68 -1 69 0 -47 86 -46 87 29 31 c70 74 66 193 -8 248 -32 23 -121 38 -232
38 l-88 0 0 -245z m218 144 c34 -12 48 -47 36 -93 -8 -35 -31 -46 -93 -46
l-51 0 0 68 c0 38 3 72 7 75 10 11 66 8 101 -4z"/>
<path d="M8550 1855 l0 -247 118 4 c183 7 235 39 268 168 18 70 12 141 -16
205 -35 80 -85 103 -250 112 l-120 6 0 -248z m210 142 c19 -7 40 -23 47 -37
15 -30 17 -168 3 -205 -12 -30 -63 -55 -115 -55 l-35 0 0 155 0 155 33 -1 c17
0 48 -5 67 -12z"/>
<path d="M9040 1918 c0 -164 2 -186 21 -225 29 -61 76 -83 171 -83 83 1 129
19 162 63 19 26 21 44 24 228 l3 199 -50 0 -50 0 -3 -181 -3 -181 -29 -25
c-34 -29 -77 -26 -111 8 -18 18 -20 35 -23 199 l-4 180 -54 0 -54 0 0 -182z"/>
<path d="M9540 2050 l0 -50 65 0 65 0 0 -150 0 -150 -65 0 -65 0 0 -45 0 -45
185 0 185 0 0 45 0 44 -62 3 -63 3 -3 148 -3 147 66 0 65 0 0 50 0 50 -185 0
-185 0 0 -50z"/>
<path d="M10020 1855 l0 -245 56 0 56 0 -4 155 c-2 85 -1 155 2 155 4 0 16
-17 27 -37 35 -65 79 -146 114 -210 l33 -63 58 0 58 0 0 245 0 245 -50 0 -50
0 0 -146 c0 -103 -3 -145 -11 -142 -6 2 -46 68 -88 146 l-76 142 -62 0 -63 0
0 -245z"/>
<path d="M10624 2086 c-70 -31 -114 -121 -114 -235 0 -114 39 -199 106 -227
18 -8 64 -14 102 -14 55 0 76 5 103 23 72 48 107 146 95 266 -12 137 -77 201
-201 201 -33 -1 -74 -7 -91 -14z m158 -116 c13 -25 18 -59 18 -115 0 -127 -45
-186 -120 -155 -41 17 -53 62 -48 176 5 116 18 136 87 132 41 -3 48 -7 63 -38z"/>
<path d="M5991 1620 c-19 -28 -32 -52 -30 -54 15 -14 157 -101 222 -135 139
-76 355 -154 482 -175 66 -11 213 -21 330 -21 l110 0 0 58 0 58 -137 4 c-157
5 -274 23 -420 66 -119 35 -309 124 -425 198 -44 28 -84 51 -89 51 -5 0 -24
-23 -43 -50z"/>
<path d="M4218 1330 c-273 -206 -609 -359 -901 -410 -95 -17 -95 -17 -93 -53
l1 -32 -75 -8 c-116 -13 -481 -2 -583 17 -219 41 -430 113 -606 207 -142 76
-214 126 -423 298 l-30 25 -31 -35 c-65 -70 -68 -58 40 -149 315 -264 663
-421 1078 -487 156 -25 498 -25 655 0 307 49 587 149 852 306 115 68 308 209
308 225 0 8 -7 19 -15 26 -8 7 -15 18 -15 25 0 13 -79 95 -91 95 -3 0 -35 -22
-71 -50z"/>
<path d="M9278 1371 c-15 -5 -44 -19 -63 -31 -34 -21 -35 -23 -20 -40 16 -17
18 -17 58 6 57 32 92 31 128 -5 36 -36 38 -78 5 -140 -27 -51 -121 -160 -183
-211 -26 -22 -42 -44 -42 -57 -1 -23 -1 -23 164 -23 l165 0 0 25 0 25 -127 0
-128 0 61 58 c108 100 173 200 174 265 0 41 -24 91 -54 110 -31 21 -101 30
-138 18z"/>
<path d="M9731 1366 c-50 -18 -98 -78 -112 -141 -6 -29 -10 -91 -7 -141 7
-135 44 -193 135 -215 62 -14 121 -1 164 38 52 47 69 103 69 227 -1 143 -29
200 -117 232 -47 16 -87 16 -132 0z m108 -45 c7 -5 11 -16 7 -27 -20 -61 -136
-329 -144 -332 -16 -5 -36 88 -35 167 1 94 24 156 67 182 33 20 82 25 105 10z
m70 -68 c19 -42 25 -151 11 -216 -16 -79 -51 -117 -110 -123 -72 -8 -78 2 -46
82 67 168 119 284 125 284 4 0 13 -12 20 -27z"/>
<path d="M10205 1365 c-56 -22 -82 -49 -66 -69 12 -14 18 -13 55 9 49 29 75
31 115 10 46 -24 54 -79 22 -151 -24 -52 -124 -169 -184 -214 -31 -23 -46 -43
-47 -57 0 -23 0 -23 170 -23 l170 0 0 25 0 25 -125 0 c-69 0 -125 3 -125 8 0
4 23 27 51 51 57 49 133 147 155 199 28 68 7 154 -45 181 -35 19 -104 22 -146
6z"/>
<path d="M10653 1360 c-49 -20 -51 -23 -41 -45 l10 -23 42 19 c50 23 78 24
116 4 80 -41 26 -138 -89 -161 -20 -4 -31 -12 -31 -24 0 -13 12 -19 49 -24 58
-8 112 -41 125 -77 31 -88 -74 -146 -179 -100 -45 20 -48 20 -61 4 -19 -26
-18 -28 27 -49 53 -24 161 -24 207 0 63 33 90 113 58 175 -19 35 -37 50 -81
65 l-35 13 37 24 c53 34 78 88 63 134 -24 74 -121 103 -217 65z"/>
<path d="M8032 695 c-172 -53 -213 -271 -71 -375 96 -69 220 -59 303 24 117
116 64 303 -100 352 -57 17 -76 17 -132 -1z m144 -119 c30 -30 34 -40 34 -86
0 -46 -4 -56 -34 -86 -26 -26 -42 -34 -70 -34 -75 0 -116 44 -116 125 0 40 5
52 34 81 28 28 42 34 76 34 34 0 48 -6 76 -34z"/>
<path d="M7560 485 l0 -215 60 0 60 0 0 85 0 85 65 0 65 0 0 45 0 45 -65 0
-65 0 0 40 0 40 70 0 70 0 0 45 0 45 -130 0 -130 0 0 -215z"/>
<path d="M8400 485 l0 -215 55 0 55 0 0 88 0 87 51 -87 51 -88 59 0 c32 0 59
2 59 5 0 3 -25 42 -56 86 -31 44 -55 81 -53 83 2 2 19 11 37 20 67 35 79 136
22 191 -34 33 -84 44 -197 45 l-83 0 0 -215z m188 113 c7 -7 12 -26 12 -43 0
-40 -16 -55 -57 -55 l-33 0 0 55 0 55 33 0 c18 0 38 -5 45 -12z"/>
<path d="M8730 650 l0 -50 50 0 50 0 0 -165 0 -165 60 0 60 0 0 165 0 165 50
0 50 0 0 50 0 50 -160 0 -160 0 0 -50z"/>
<path d="M9185 688 c-17 -45 -135 -404 -135 -410 0 -4 22 -8 50 -8 49 0 49 0
60 40 l11 40 88 0 87 0 10 -37 c9 -37 10 -38 62 -41 29 -2 52 1 52 7 0 5 -32
102 -71 215 l-71 206 -69 0 c-47 0 -71 -4 -74 -12z m100 -141 c12 -39 25 -82
29 -94 7 -22 5 -23 -54 -23 -55 0 -62 2 -57 18 2 9 15 54 28 99 13 45 26 80
28 77 3 -2 14 -37 26 -77z"/>
<path d="M9520 485 l0 -215 130 0 130 0 0 50 0 50 -70 0 -70 0 0 165 0 165
-60 0 -60 0 0 -215z"/>
<path d="M9840 485 l0 -215 130 0 130 0 0 50 0 50 -70 0 -70 0 0 35 0 35 65 0
65 0 0 45 0 45 -65 0 -65 0 0 40 0 40 70 0 70 0 0 45 0 45 -130 0 -130 0 0
-215z"/>
<path d="M10180 655 l0 -45 85 0 84 0 -104 -165 c-58 -91 -105 -168 -105 -170
0 -3 81 -5 180 -5 l180 0 0 45 0 45 -90 0 c-49 0 -90 2 -90 5 0 3 45 77 100
165 55 88 100 162 100 165 0 3 -76 5 -170 5 l-170 0 0 -45z"/>
<path d="M10685 688 c-17 -45 -135 -404 -135 -410 0 -4 22 -8 50 -8 49 0 49 0
60 40 l11 40 88 0 87 0 10 -37 c9 -37 10 -38 62 -41 29 -2 52 1 52 7 0 5 -32
102 -71 215 l-71 206 -69 0 c-47 0 -71 -4 -74 -12z m100 -141 c12 -39 25 -82
29 -94 7 -22 5 -23 -54 -23 -55 0 -62 2 -57 18 2 9 15 54 28 99 13 45 26 80
28 77 3 -2 14 -37 26 -77z"/>
</g>
</svg>
